<svg width="121" height="94" viewBox="0 0 121 94" fill="none" xmlns="http://www.w3.org/2000/svg">
<g filter="url(#filter0_d_1171_6966)">
<path d="M14.4113 66.2148C13.1644 66.2148 12.026 66.0933 10.9962 65.8482C9.9663 65.6217 9.09818 65.3252 8.39385 64.9606C7.68952 64.5941 7.06505 64.143 6.52247 63.6014C5.97989 63.0618 5.56016 62.5223 5.26124 61.9807C4.95002 61.4411 4.69204 60.8665 4.48934 60.2569C4.28664 59.6123 4.15765 59.0377 4.10237 58.5332C4.03481 58.0286 4 57.522 4 57.0174V56.3131C4 55.512 4.06142 54.7624 4.18222 54.0663C4.30507 53.3517 4.58557 52.5588 5.02578 51.6897C5.46598 50.8186 6.04132 50.0751 6.75383 49.4553C7.46635 48.8374 8.4778 48.3143 9.79431 47.888C11.1088 47.4617 12.6485 47.2476 14.4093 47.2476H15.2631C16.9707 47.2476 18.4817 47.4308 19.7982 47.7954C21.1127 48.1619 22.1303 48.613 22.8469 49.1546C23.5512 49.6777 24.1347 50.2955 24.5954 51.0101C25.0418 51.7062 25.3345 52.324 25.4697 52.8657C25.6048 53.4238 25.6724 53.9551 25.6724 54.4597V54.7212H20.5087C20.4677 54.5297 20.4145 54.3546 20.3469 54.1981C20.265 54.0231 20.1094 53.7718 19.8801 53.4402C19.6098 53.0922 19.2904 52.8039 18.9239 52.5773C18.5452 52.3508 18.0026 52.1428 17.2983 51.9513C16.5796 51.7597 15.7524 51.665 14.8188 51.665C13.707 51.665 12.759 51.8051 11.9728 52.0831C11.1866 52.3611 10.5969 52.7359 10.2038 53.2075C9.81069 53.6956 9.5261 54.1919 9.35001 54.6965C9.18826 55.2361 9.10637 55.8106 9.10637 56.4202V56.7333C9.10637 57.3264 9.20055 57.8906 9.39096 58.4323C9.58138 58.9904 9.87212 59.5299 10.2652 60.051C10.6727 60.5555 11.2746 60.9654 12.0752 61.2784C12.8757 61.5914 13.8032 61.7479 14.8597 61.7479C18.0579 61.7479 19.9436 60.6853 20.5128 58.56C20.5271 58.5249 20.5332 58.5085 20.5332 58.5085H25.6969V58.77C25.6826 59.3281 25.6089 59.8842 25.4738 60.4423C25.3243 61.0168 25.0192 61.6614 24.5585 62.3761C24.0979 63.0907 23.5082 63.7167 22.7895 64.2563C22.0709 64.7959 21.0574 65.2572 19.7491 65.6402C18.4407 66.0233 16.9461 66.2148 15.2651 66.2148H14.4113Z" fill="#F0F0F0"/>
<path d="M37.8364 47.3014H38.508C39.849 47.3014 41.0693 47.4146 42.1688 47.6412C43.2663 47.8677 44.1876 48.156 44.9329 48.5041C45.6782 48.8707 46.3293 49.3134 46.8841 49.8365C47.441 50.3761 47.873 50.8992 48.1863 51.4037C48.4975 51.9433 48.7494 52.5179 48.9377 53.1275C49.1404 53.7535 49.2694 54.3116 49.3247 54.7997C49.3779 55.3043 49.4066 55.8191 49.4066 56.3402V57.098C49.4066 57.6211 49.38 58.1257 49.3247 58.6138C49.2715 59.1019 49.1425 59.6579 48.9377 60.286C48.7473 60.9306 48.4975 61.5134 48.1863 62.0365C47.8751 62.5761 47.441 63.1074 46.8841 63.6305C46.3293 64.1701 45.6802 64.6232 44.9431 64.9897C44.204 65.3563 43.2826 65.6549 42.177 65.8918C41.0714 66.1265 39.849 66.2439 38.508 66.2439H37.8364C36.4953 66.2439 35.2668 66.1265 34.1571 65.8918C33.0453 65.657 32.1199 65.3563 31.3828 64.9897C30.6437 64.6232 29.9967 64.1701 29.4418 63.6305C28.8726 63.091 28.4324 62.5596 28.1212 62.0365C27.81 61.497 27.5581 60.9121 27.3698 60.286C27.1794 59.66 27.0586 59.1019 27.0033 58.6138C26.95 58.1092 26.9214 57.6047 26.9214 57.098V56.3402C26.9214 55.8006 26.948 55.296 27.0033 54.8244C27.0709 54.3199 27.1937 53.7618 27.3698 53.1522C27.5602 52.5261 27.81 51.9413 28.1212 51.4017C28.4467 50.8786 28.8808 50.3576 29.4234 49.8345C29.9782 49.3114 30.6293 48.8686 31.3746 48.502C32.1342 48.154 33.0617 47.8657 34.1612 47.6391C35.273 47.4126 36.4994 47.2993 37.8405 47.2993L37.8364 47.3014ZM44.3228 56.8633V56.5235C44.3228 56.0704 44.2757 55.6359 44.1794 55.2178C44.0709 54.7997 43.8805 54.3734 43.6102 53.9368C43.3256 53.5023 42.9673 53.1275 42.5333 52.8124C42.0726 52.4994 41.4624 52.2378 40.7028 52.0277C40.0661 51.8712 39.3536 51.7744 38.5673 51.7394C38.3503 51.7394 38.1333 51.7394 37.9162 51.7394C33.9728 51.8259 31.9991 53.4199 31.9991 56.5214V56.8077C32.0114 57.4173 32.1015 57.9754 32.2632 58.4799C32.4536 59.0195 32.7505 59.5426 33.1579 60.0471C33.5777 60.5867 34.2226 61.0048 35.0887 61.3013C35.9015 61.5979 36.872 61.7544 37.9961 61.7709C38.1456 61.7709 38.3073 61.7709 38.4834 61.7709C39.5276 61.7359 40.4285 61.5876 41.1881 61.326C42.0685 61.0295 42.7196 60.6217 43.1393 60.0986C43.5734 59.5755 43.8785 59.0545 44.0545 58.5314C44.2306 58.0083 44.3187 57.4523 44.3187 56.8591L44.3228 56.8633Z" fill="#F0F0F0"/>
<path d="M51.2369 47.5611H61.5459C62.9955 47.5611 64.3038 47.6744 65.4709 47.9009C66.6359 48.1275 67.6125 48.4591 68.3987 48.8936C69.185 49.3467 69.8484 49.8347 70.3909 50.3558C70.9601 50.8953 71.388 51.4967 71.6726 52.1578C71.9716 52.8374 72.1886 53.4985 72.3237 54.1431C72.4466 54.8041 72.506 55.5023 72.506 56.2334V56.9645C72.506 57.8521 72.4241 58.6717 72.2623 59.4193C72.0862 60.1854 71.7545 60.9783 71.2652 61.7959C70.7779 62.6135 70.1432 63.3116 69.3651 63.8862C68.5851 64.4608 67.5245 64.9344 66.1834 65.3092C64.8423 65.684 63.3026 65.8715 61.5684 65.8715H51.239V47.5591L51.2369 47.5611ZM56.0956 51.8983V61.4869H61.1589C65.3194 61.4869 67.4016 59.9115 67.4016 56.7585V56.602C67.4016 53.4676 65.3214 51.9003 61.1589 51.9003H56.0956V51.8983Z" fill="#F0F0F0"/>
<path d="M74.3361 47.561H90.7219V51.7149H79.1333V54.4333H90.4373V58.6119H79.1333V61.6166H90.9266V65.8755H74.3361V47.561Z" fill="#F0F0F0"/>
<path d="M97.9416 59.4236V65.9025H93.0829V47.6416H105.587C110.073 47.6416 112.317 49.2171 112.317 52.37V52.6584C112.317 54.5921 111.361 55.9328 109.45 56.6804C110.318 56.977 111.023 57.4733 111.565 58.1694C112.108 58.8654 112.378 59.7716 112.378 60.8857V63.5506L112.399 65.9025H107.499C107.499 65.886 107.505 65.5009 107.52 64.7533V62.6362C107.52 61.5036 107.276 60.686 106.787 60.1814C106.299 59.6769 105.466 59.4236 104.287 59.4236H97.9436H97.9416ZM97.9416 51.7955V55.3747H105.302C105.966 55.3747 106.457 55.21 106.776 54.8784C107.094 54.5468 107.253 54.1123 107.253 53.5727V53.546C107.253 53.0229 107.094 52.6007 106.776 52.2794C106.457 51.9561 105.966 51.7955 105.302 51.7955H97.9416Z" fill="#F0F0F0"/>
<path d="M52.5943 45.2313C51.1795 45.2148 49.947 45.0727 48.8925 44.8009C47.8381 44.5146 47.0273 44.1666 46.4561 43.7609C45.8848 43.3552 45.4303 42.865 45.0884 42.2904C44.7464 41.7159 44.5335 41.1907 44.4475 40.7129C44.3492 40.2516 44.298 39.7573 44.298 39.2322V38.9933H48.9294C49.0031 40.2207 49.5682 41.0177 50.6226 41.3822C51.1795 41.5573 51.888 41.6458 52.7438 41.6458H53.7675C54.4371 41.6458 55.0574 41.5985 55.6266 41.5017C56.2102 41.4069 56.636 41.271 56.9104 41.096C57.1704 40.9044 57.3445 40.7129 57.4304 40.5214C57.5164 40.3299 57.5676 40.1157 57.5799 39.8768C57.5799 39.5102 57.5001 39.224 57.3383 39.016C57.1766 38.808 56.8244 38.6267 56.2777 38.4661C55.7065 38.3075 54.9018 38.2107 53.8597 38.1798L52.4654 38.1551L51.4048 38.1077C46.7918 37.9636 44.4864 36.3305 44.4864 33.2084V33.0169C44.4987 32.4752 44.554 31.9727 44.6543 31.5114C44.7771 31.0645 45.0106 30.6115 45.3525 30.1501C45.6944 29.6888 46.1428 29.3058 46.7018 29.0031C47.2607 28.6838 48.0039 28.4223 48.9335 28.2143C49.8753 28.0063 50.9728 27.9033 52.2258 27.9033H53.528C54.8302 27.9033 55.9768 28.0104 56.9698 28.2266C57.9628 28.4408 58.7531 28.7127 59.3407 29.0401C59.9304 29.3676 60.4095 29.7692 60.7821 30.2469C61.1671 30.7412 61.4271 31.219 61.5622 31.6803C61.6994 32.1581 61.767 32.6606 61.767 33.1857V33.4246H57.154C57.1295 33.2331 57.0926 33.0828 57.0435 32.9716C57.0066 32.8439 56.9042 32.6729 56.7364 32.4567C56.5685 32.2425 56.3555 32.0695 56.0935 31.9418C55.8089 31.7977 55.4117 31.6782 54.9039 31.5835C54.3572 31.4723 53.8126 31.4167 53.268 31.4167H52.5984C51.632 31.4167 50.8622 31.497 50.291 31.6556C49.7218 31.8142 49.3737 31.983 49.2488 32.1581C49.1239 32.3167 49.0625 32.5473 49.0625 32.85C49.0748 33.1363 49.1423 33.367 49.2672 33.542C49.4044 33.7335 49.7238 33.9045 50.2254 34.0569C50.7271 34.2093 51.4375 34.2834 52.3548 34.2834L53.3969 34.3081L54.736 34.3328C57.3772 34.3967 59.2875 34.823 60.4648 35.6117C61.6421 36.4005 62.2317 37.632 62.2317 39.3043V39.6152C62.2317 40.2372 62.1765 40.7953 62.0638 41.2875C61.941 41.7653 61.7014 42.2595 61.3472 42.7703C60.993 43.281 60.5221 43.7073 59.9324 44.0492C59.3428 44.391 58.534 44.6752 57.5062 44.8977C56.4763 45.1201 55.2806 45.2333 53.917 45.2333H52.5964L52.5943 45.2313Z" fill="#F0F0F0"/>
<path d="M72.6351 45.2313C71.2223 45.2148 69.9877 45.0727 68.9332 44.8009C67.8788 44.5146 67.066 44.1666 66.4968 43.7609C65.9276 43.3552 65.471 42.865 65.1291 42.2904C64.7871 41.7159 64.5742 41.1907 64.4882 40.7129C64.3899 40.2516 64.3387 39.7573 64.3387 39.2322V38.9933H68.9701C69.0438 40.2207 69.6089 41.0177 70.6633 41.3822C71.2223 41.5573 71.9287 41.6458 72.7845 41.6458H73.8082C74.4778 41.6458 75.0981 41.5985 75.6673 41.5017C76.2509 41.4069 76.6788 41.271 76.9511 41.096C77.2111 40.9044 77.3852 40.7129 77.4712 40.5214C77.5571 40.3299 77.6083 40.1157 77.6206 39.8768C77.6206 39.5102 77.5408 39.224 77.379 39.016C77.2173 38.808 76.8651 38.6267 76.3184 38.4661C75.7472 38.3075 74.9425 38.2107 73.9004 38.1798L72.5061 38.1551L71.4455 38.1077C66.8325 37.9636 64.5271 36.3305 64.5271 33.2084V33.0169C64.5394 32.4752 64.5947 31.9727 64.695 31.5114C64.8199 31.0645 65.0513 30.6115 65.3932 30.1501C65.7351 29.6888 66.1835 29.3058 66.7425 29.0031C67.2994 28.6838 68.0446 28.4223 68.9742 28.2143C69.916 28.0063 71.0135 27.9033 72.2665 27.9033H73.5687C74.8709 27.9033 76.0175 28.0104 77.0105 28.2266C78.0035 28.4408 78.7938 28.7127 79.3814 29.0401C79.9711 29.3676 80.4502 29.7692 80.8228 30.2469C81.2078 30.7412 81.4678 31.219 81.605 31.6803C81.7422 32.1581 81.8097 32.6606 81.8097 33.1857V33.4246H77.1968C77.1722 33.2331 77.1354 33.0828 77.0862 32.9716C77.0494 32.8439 76.947 32.6729 76.7791 32.4567C76.6112 32.2425 76.3983 32.0695 76.1383 31.9418C75.8537 31.7977 75.4565 31.6782 74.9487 31.5835C74.4041 31.4723 73.8574 31.4167 73.3128 31.4167H72.6432C71.6768 31.4167 70.907 31.497 70.3378 31.6556C69.7666 31.8142 69.4205 31.983 69.2956 32.1581C69.1707 32.3167 69.1093 32.5473 69.1093 32.85C69.1216 33.1363 69.1892 33.367 69.3141 33.542C69.4513 33.7335 69.7707 33.9045 70.2723 34.0569C70.7739 34.2093 71.4844 34.2834 72.4016 34.2834L73.4438 34.3081L74.7828 34.3328C77.4241 34.3967 79.3343 34.823 80.5116 35.6117C81.6889 36.4005 82.2786 37.632 82.2786 39.3043V39.6152C82.2786 40.2372 82.2233 40.7953 82.1107 41.2875C81.9858 41.7653 81.7483 42.2595 81.3941 42.7703C81.0399 43.281 80.569 43.7073 79.9813 44.0492C79.3917 44.391 78.5829 44.6752 77.5531 44.8977C76.5232 45.1201 75.3275 45.2333 73.9639 45.2333H72.6432L72.6351 45.2313Z" fill="#F0F0F0"/>
<path d="M14.6403 39.1134H8.44668V44.6821H4.00165V27.9761H14.6403C19.0546 27.9761 21.2617 29.7842 21.2617 33.4006V33.6395C21.2617 37.2888 19.0546 39.1134 14.6403 39.1134ZM8.44668 31.7757V35.3612H14.5665C15.9424 35.3612 16.6304 34.7804 16.6304 33.6168V33.5447C16.6304 32.3668 15.9424 31.7757 14.5665 31.7757H8.44668Z" fill="#F0F0F0"/>
<path d="M38.6897 44.6567L37.3507 41.5985H25.7621L24.4967 44.6567H19.9575L27.138 27.9033H35.8806L43.4869 44.6567H38.6877H38.6897ZM33.0531 31.775H29.8918L27.3611 37.8215H35.7127L33.0531 31.775Z" fill="#F0F0F0"/>
<path fill-rule="evenodd" clip-rule="evenodd" d="M105.439 10.6686C105.466 10.7818 106.049 11.8301 106.359 12.7856C106.629 13.6197 106.844 14.287 107.216 15.0098C107.739 16.021 109.209 17.788 110.077 17.8848L110.666 18.204C112.597 18.9536 113.672 18.7497 115.638 18.7168C116.547 18.7024 117.317 19.6868 116.801 20.6053C116.326 21.4517 115.216 21.3796 114.065 21.3714C110.763 21.3487 108.072 20.2902 106.054 17.8827C105.849 17.6376 105.505 17.0548 105.3 16.9374C105.239 16.577 104.936 16.2002 104.757 15.8254C104.633 15.5617 104.389 14.9007 104.272 14.7236C104.01 13.7247 103.662 12.5653 103.064 11.9145C101.903 10.6521 99.1229 10.786 98.2036 12.9298C97.8473 13.7577 98.0418 14.9851 98.2691 15.8871L98.4104 16.2372C98.2855 17.2608 99.7965 20.3293 100.501 21.3384C102.532 24.2546 105.497 25.5499 108.881 26.2543C109.626 26.4087 113.879 27.1213 114.37 27.0286C114.964 27.4075 115.961 27.0142 116.522 27.8688C117.046 28.6679 116.555 29.6008 115.844 29.8191C115.398 29.9571 113.871 29.6173 113.326 29.5411C109.205 28.9706 105.435 28.534 102.094 26.3964C99.8845 24.9836 97.919 22.8315 96.6352 19.4479C96.107 18.0578 95.4723 15.6668 95.4231 14.1305C95.3822 12.7918 95.8101 11.826 96.4612 10.8354C96.7601 10.3823 96.928 10.3864 97.1553 9.98072L97.2147 9.93953C97.8985 9.57913 98.048 9.19814 99.2478 8.80273C103.068 7.54236 105.23 10.545 105.439 10.6686ZM113.977 12.3182C111.764 12.6889 112.462 10.1825 110.355 7.37143C104.405 -0.565577 92.8331 1.88925 90.0342 10.6253C88.5007 15.4114 90.7836 19.1493 90.3311 21.7215C90.1509 22.7429 89.4671 23.7727 88.6604 24.2051C87.5015 24.8271 86.3037 23.7026 86.8095 22.5926C87.1432 21.8615 87.9724 22.0119 87.8311 20.6094C87.8148 20.4385 87.782 20.2696 87.7472 20.1007L87.5936 19.6476V19.3799C87.1391 16.6944 86.6723 14.6803 87.0756 12.0113C87.3909 9.91276 88.2591 7.82862 89.1702 6.47764C90.2451 4.88777 91.2668 3.72214 93.1054 2.42676C94.7823 1.24671 96.8154 0.464133 99.1045 0.103735C102.505 -0.293734 106.107 0.447658 108.826 2.38557C109.047 2.54209 109.108 2.54621 109.342 2.75627C110.259 3.58004 110.562 3.61917 111.715 4.94955C112.251 5.56944 112.841 6.37261 113.269 7.15313C113.752 8.03662 114.063 8.86657 114.432 9.8448C114.927 11.1628 115.142 11.6447 113.975 12.3161L113.977 12.3182ZM102.554 4.32761C105.276 5.02781 108.25 5.76096 110.664 12.0896C111.743 14.9419 113.099 14.3817 114.679 14.2664C116.023 14.1696 116 15.4217 116.062 15.9057C115.787 16.2208 115.75 16.5503 115.271 16.7397C114.901 16.886 114.209 16.958 113.799 16.9827C111.213 17.1413 109.37 15.7636 108.339 13.2017C107.139 10.2217 105.708 7.10577 101.936 6.88335C101.14 6.62592 99.2969 6.98426 98.5086 7.27876C97.5361 7.64327 96.6823 8.21991 96.0681 8.82744C94.9317 9.95189 93.7667 11.7436 93.7811 14.1552C93.7033 15.1972 94.0902 17.1537 94.2991 18.2102C94.5796 19.6312 94.9092 21.6988 94.4137 23.229C93.4064 23.3011 92.4482 23.5544 91.5739 23.9601C91.5698 23.8859 91.5739 23.8077 91.5862 23.7294C91.6681 23.196 91.9465 22.9324 92.0284 22.0819C92.2598 19.6415 91.6558 18.8012 91.3262 15.8933C90.8245 11.48 92.399 7.97072 96.0537 5.61269C98.0603 4.31731 100.065 4.16903 102.552 4.32555L102.554 4.32761ZM102.229 13.6794C102.681 15.4917 102.708 16.5915 103.887 18.3317C104.715 19.5508 105.816 20.5373 107.014 21.1469C108.287 21.7936 109.665 22.2281 111.293 22.5185C112.094 22.6606 112.882 22.7512 113.717 22.8377C114.258 22.8933 115.773 23.0931 116.182 23.0622L116.512 23.3278C117.45 24.0692 116.967 25.6117 115.656 25.6035C114.428 25.5973 113.042 25.2719 111.825 25.2307L111.533 25.2225L111.219 25.1133C109.301 24.7159 108.549 24.6747 106.49 23.7665C103.193 22.3146 101.097 19.6703 100.13 16.1466C99.8661 15.1828 99.475 13.8668 100.046 13.2119C100.312 12.9072 100.841 12.693 101.336 12.831C101.811 12.9628 102.018 13.1666 102.231 13.6753L102.229 13.6794ZM104.45 38.3492C105.38 38.6314 109.712 38.8085 110.093 39.0124C110.603 39.2842 110.9 39.8835 110.709 40.6022C110.191 41.6752 109.375 41.494 108.081 41.3787C107.075 41.2901 106.113 41.1542 105.116 41.0409C101.926 40.6764 102.053 40.8782 99.5058 42.2724C99.084 42.5031 98.6417 42.7935 98.0848 42.6678C97.6508 42.5711 97.2986 42.2683 97.1573 41.7802C96.8174 40.6125 97.8698 40.2316 98.6683 39.7785C99.4853 39.3151 100.239 38.862 101.211 38.5593C102.565 38.1371 103.154 38.3142 104.452 38.3492H104.45ZM104.694 32.6797L104.209 32.5211C104.053 32.4922 103.939 32.4717 103.779 32.4428C103.601 32.4099 103.375 32.3749 103.169 32.3296C103.197 32.0454 103.214 31.757 103.214 31.4667C103.214 30.8571 103.148 30.264 103.023 29.6935C104.479 29.9139 108.234 30.682 108.787 30.7768C109.858 30.9621 111.015 31.1289 112.132 31.271C112.966 31.376 114.839 31.4214 115.38 31.8168C116.365 32.5376 115.877 34.1418 114.542 34.1274C112.53 34.1027 104.852 32.6508 104.696 32.6817L104.694 32.6797ZM106.946 34.5908L107.401 34.634C107.7 34.875 111.625 35.3425 112.341 35.3981C113.187 35.464 114.008 35.8594 113.836 36.92C113.684 37.8632 112.937 38.0486 111.868 37.9497C109.325 37.7149 106.93 37.2042 104.43 36.8026C103.701 36.6852 102.511 36.6173 101.889 36.469C101.946 36.1457 102.213 35.6658 102.344 35.2704C102.37 35.1901 102.393 35.1036 102.417 35.015C102.575 34.6814 102.712 34.3354 102.825 33.9792C104.166 34.0142 105.644 34.4714 106.946 34.5908ZM95.7261 28.394C96.7949 28.1736 97.8391 28.8656 98.0603 29.9406C98.2793 31.0156 97.5914 32.0659 96.5226 32.2884C95.4538 32.5087 94.4096 31.8168 94.1885 30.7417C93.9694 29.6667 94.6574 28.6144 95.7261 28.394ZM86.7931 44.6861C87.8168 44.4492 89.3667 44.1795 89.8028 43.1621C90.1734 42.2951 89.1907 41.3931 90.1816 41.008L91.5125 40.5116L91.4142 38.6829C92.5198 38.2339 93.0419 38.2421 93.4207 37.6552C93.6398 37.3134 94.2765 36.2383 94.5304 36.0139C96.7478 36.401 99.0062 35.7173 100.253 33.7753C102.606 30.1095 99.8088 25.3872 95.6832 25.5479C94.0841 25.6097 92.5731 26.4396 91.6149 27.7165C90.0895 29.7491 90.3229 32.0927 91.7008 34.1315L87.5015 40.5302C87.2579 40.9029 87.0613 41.2098 86.8156 41.5784C86.2874 42.3733 86.6252 43.7532 86.7951 44.6881L86.7931 44.6861Z" fill="#F0F0F0"/>
</g>
<g filter="url(#filter1_d_1171_6966)">
<path d="M15.1155 86V72H21.1555C22.0355 72 22.8155 72.2 23.4955 72.6C24.1888 73 24.7355 73.5467 25.1355 74.24C25.5488 74.9333 25.7555 75.7133 25.7555 76.58C25.7555 77.4867 25.5488 78.3 25.1355 79.02C24.7355 79.7267 24.1888 80.2867 23.4955 80.7C22.8155 81.1133 22.0355 81.32 21.1555 81.32H18.5155V86H15.1155ZM18.4555 78.34H20.6755C20.9688 78.34 21.2355 78.2667 21.4755 78.12C21.7155 77.9733 21.9088 77.7733 22.0555 77.52C22.2021 77.2667 22.2755 76.9733 22.2755 76.64C22.2755 76.2933 22.2021 76 22.0555 75.76C21.9088 75.52 21.7155 75.3333 21.4755 75.2C21.2355 75.0667 20.9688 75 20.6755 75H18.4555V78.34ZM25.2691 86L30.8091 72H33.6891L39.1891 86H35.7491L33.1091 78.9C33.0024 78.62 32.8957 78.32 32.7891 78C32.6824 77.68 32.5757 77.3533 32.4691 77.02C32.3624 76.6733 32.2557 76.34 32.1491 76.02C32.0557 75.6867 31.9757 75.38 31.9091 75.1L32.5091 75.08C32.4291 75.4133 32.3357 75.74 32.2291 76.06C32.1357 76.38 32.0357 76.7 31.9291 77.02C31.8357 77.3267 31.7291 77.64 31.6091 77.96C31.4891 78.2667 31.3757 78.5867 31.2691 78.92L28.6291 86H25.2691ZM27.9091 83.32L28.9691 80.76H35.4091L36.4491 83.32H27.9091ZM40.9358 86V72H47.2358C48.1291 72 48.9358 72.1933 49.6558 72.58C50.3891 72.9667 50.9624 73.5 51.3758 74.18C51.7891 74.8467 51.9958 75.6067 51.9958 76.46C51.9958 77.34 51.7891 78.1333 51.3758 78.84C50.9624 79.5333 50.3958 80.08 49.6758 80.48C48.9558 80.88 48.1424 81.08 47.2358 81.08H44.1758V86H40.9358ZM48.6958 86L45.1358 79.68L48.6158 79.18L52.5758 86H48.6958ZM44.1758 78.48H46.9358C47.2824 78.48 47.5824 78.4067 47.8358 78.26C48.1024 78.1 48.3024 77.88 48.4358 77.6C48.5824 77.32 48.6558 77 48.6558 76.64C48.6558 76.28 48.5758 75.9667 48.4158 75.7C48.2558 75.42 48.0224 75.2067 47.7158 75.06C47.4224 74.9133 47.0624 74.84 46.6358 74.84H44.1758V78.48ZM57.6281 86V75H53.4681V72H65.2881V75H61.0281V86H57.6281ZM67.6936 86V72H70.7336L78.0736 82L77.4136 81.9C77.3469 81.46 77.2936 81.04 77.2536 80.64C77.2136 80.24 77.1736 79.8467 77.1336 79.46C77.1069 79.0733 77.0803 78.68 77.0536 78.28C77.0403 77.88 77.0269 77.4467 77.0136 76.98C77.0136 76.5133 77.0136 76.0067 77.0136 75.46V72H80.3136V86H77.2336L69.5736 75.68L70.5936 75.82C70.6603 76.46 70.7136 77.0067 70.7536 77.46C70.8069 77.9 70.8469 78.2933 70.8736 78.64C70.9136 78.9867 70.9403 79.3 70.9536 79.58C70.9669 79.86 70.9736 80.14 70.9736 80.42C70.9869 80.6867 70.9936 80.9867 70.9936 81.32V86H67.6936ZM83.8264 86V72H93.5864V74.9H87.1264V83.1H93.7864V86H83.8264ZM85.4264 80.26V77.5H92.6864V80.26H85.4264ZM96.717 86V72H103.017C103.91 72 104.717 72.1933 105.437 72.58C106.17 72.9667 106.744 73.5 107.157 74.18C107.57 74.8467 107.777 75.6067 107.777 76.46C107.777 77.34 107.57 78.1333 107.157 78.84C106.744 79.5333 106.177 80.08 105.457 80.48C104.737 80.88 103.924 81.08 103.017 81.08H99.957V86H96.717ZM104.477 86L100.917 79.68L104.397 79.18L108.357 86H104.477ZM99.957 78.48H102.717C103.064 78.48 103.364 78.4067 103.617 78.26C103.884 78.1 104.084 77.88 104.217 77.6C104.364 77.32 104.437 77 104.437 76.64C104.437 76.28 104.357 75.9667 104.197 75.7C104.037 75.42 103.804 75.2067 103.497 75.06C103.204 74.9133 102.844 74.84 102.417 74.84H99.957V78.48Z" fill="white"/>
</g>
<defs>
<filter id="filter0_d_1171_6966" x="0" y="0" width="121" height="74.2441" filterUnits="userSpaceOnUse" color-interpolation-filters="sRGB">
<feFlood flood-opacity="0" result="BackgroundImageFix"/>
<feColorMatrix in="SourceAlpha" type="matrix" values="0 0 0 0 0 0 0 0 0 0 0 0 0 0 0 0 0 0 127 0" result="hardAlpha"/>
<feOffset dy="4"/>
<feGaussianBlur stdDeviation="2"/>
<feComposite in2="hardAlpha" operator="out"/>
<feColorMatrix type="matrix" values="0 0 0 0 0 0 0 0 0 0 0 0 0 0 0 0 0 0 0.25 0"/>
<feBlend mode="normal" in2="BackgroundImageFix" result="effect1_dropShadow_1171_6966"/>
<feBlend mode="normal" in="SourceGraphic" in2="effect1_dropShadow_1171_6966" result="shape"/>
</filter>
<filter id="filter1_d_1171_6966" x="11.1155" y="72" width="101.242" height="22" filterUnits="userSpaceOnUse" color-interpolation-filters="sRGB">
<feFlood flood-opacity="0" result="BackgroundImageFix"/>
<feColorMatrix in="SourceAlpha" type="matrix" values="0 0 0 0 0 0 0 0 0 0 0 0 0 0 0 0 0 0 127 0" result="hardAlpha"/>
<feOffset dy="4"/>
<feGaussianBlur stdDeviation="2"/>
<feComposite in2="hardAlpha" operator="out"/>
<feColorMatrix type="matrix" values="0 0 0 0 0 0 0 0 0 0 0 0 0 0 0 0 0 0 0.25 0"/>
<feBlend mode="normal" in2="BackgroundImageFix" result="effect1_dropShadow_1171_6966"/>
<feBlend mode="normal" in="SourceGraphic" in2="effect1_dropShadow_1171_6966" result="shape"/>
</filter>
</defs>
</svg>
